<?xml version="1.0" encoding="UTF-8" standalone="no"?>
<svg
   xmlns:dc="http://purl.org/dc/elements/1.1/"
   xmlns:cc="http://creativecommons.org/ns#"
   xmlns:rdf="http://www.w3.org/1999/02/22-rdf-syntax-ns#"
   xmlns:svg="http://www.w3.org/2000/svg"
   xmlns="http://www.w3.org/2000/svg"
   viewBox="0 0 1280 720"
   height="720"
   width="1280"
   xml:space="preserve"
   id="svg2"
   version="1.1"><metadata
     id="metadata8"><rdf:RDF><cc:Work
         rdf:about=""><dc:format>image/svg+xml</dc:format><dc:type
           rdf:resource="http://purl.org/dc/dcmitype/StillImage" /></cc:Work></rdf:RDF></metadata><defs
     id="defs6"><clipPath
       id="clipPath20"
       clipPathUnits="userSpaceOnUse"><path
         id="path18"
         d="M 0,1.206994e-5 H 959.76 V 540.00001 H 0 Z" /></clipPath></defs><g
     transform="matrix(1.3333333,0,0,-1.3333333,0,720)"
     id="g10"><g
       id="g12" /><g
       id="g14"><g
         clip-path="url(#clipPath20)"
         id="g16"><path
           id="path22"
           style="fill:#ffffff;fill-opacity:1;fill-rule:nonzero;stroke:none"
           d="M 0,540 H 959.76 V 1.206994e-5 H 0 Z" /></g></g><g
       id="g24"><path
         id="path26"
         style="fill:#404040;fill-opacity:1;fill-rule:nonzero;stroke:none"
         d="M 0,540 H 960 V 1.40816e-5 H 0 Z" /><g
         transform="matrix(0.24,0,0,0.24,37.57496,-208.8)"
         id="g28"><text
           id="text32"
           style="font-variant:normal;font-weight:normal;font-size:91.66665649px;font-family:AvenirNextLTPro;-inkscape-font-specification:AvenirNextLTPro;writing-mode:lr-tb;fill:#92d050;fill-opacity:1;fill-rule:nonzero;stroke:none"
           transform="matrix(1,0,0,-1,0,2250)"><tspan
             id="tspan30"
             y="0"
             x="0">A</tspan></text>
</g><g
         transform="matrix(0.24,0,0,0.24,52.94996,-208.8)"
         id="g34"><text
           id="text38"
           style="font-variant:normal;font-weight:normal;font-size:91.66665649px;font-family:AvenirNextLTPro;-inkscape-font-specification:AvenirNextLTPro;writing-mode:lr-tb;fill:#92d050;fill-opacity:1;fill-rule:nonzero;stroke:none"
           transform="matrix(1,0,0,-1,0,2250)"><tspan
             id="tspan36"
             y="0"
             x="0 57.814163 110.42166 163.5425 192.71082 216.67249 285.94498 308.86163 330.09164 353.0083 418.10995 471.2308 498.3183 547.27747 570.19415 603.0108 656.13159 708.73914 749.36578 789.99243 812.90912 881.1366 933.74408 956.66077 1014.4749 1068.1183 1097.2866 1120.2032 1141.4332 1164.35 1209.5782 1265.825 1311.6582 1360.6174 1383.5341">gentID , Unfairness weight , Local </tspan></text>
</g><g
         transform="matrix(0.24,0,0,0.24,390.4949,-208.8)"
         id="g40"><text
           id="text44"
           style="font-variant:normal;font-weight:normal;font-size:91.66665649px;font-family:AvenirNextLTPro;-inkscape-font-specification:AvenirNextLTPro;writing-mode:lr-tb;fill:#92d050;fill-opacity:1;fill-rule:nonzero;stroke:none"
           transform="matrix(1,0,0,-1,0,2250)"><tspan
             id="tspan42"
             y="0"
             x="0 45.833328 102.07999 142.70665 171.87498">cost </tspan></text>
</g><g
         transform="matrix(0.24,0,0,0.24,437.245,-208.8)"
         id="g46"><text
           id="text50"
           style="font-variant:normal;font-weight:normal;font-size:91.66665649px;font-family:AvenirNextLTPro;-inkscape-font-specification:AvenirNextLTPro;writing-mode:lr-tb;fill:#92d050;fill-opacity:1;fill-rule:nonzero;stroke:none"
           transform="matrix(1,0,0,-1,0,2250)"><tspan
             id="tspan48"
             y="0"
             x="0 68.227493 120.83499 143.75166 201.56581 255.20915 284.37747 307.29416 328.52414 351.4408 422.79413 445.71082 501.95746 560.29413 609.2533 632.16998">weight , Global </tspan></text>
</g><g
         transform="matrix(0.24,0,0,0.24,594.4649,-208.8)"
         id="g52"><text
           id="text56"
           style="font-variant:normal;font-weight:normal;font-size:91.66665649px;font-family:AvenirNextLTPro;-inkscape-font-specification:AvenirNextLTPro;writing-mode:lr-tb;fill:#92d050;fill-opacity:1;fill-rule:nonzero;stroke:none"
           transform="matrix(1,0,0,-1,0,2250)"><tspan
             id="tspan54"
             y="0"
             x="0 45.833328 102.07999 142.70665 171.87498 194.79166 263.01913 315.62665 338.5433 396.35748 450.00079">cost weight</tspan></text>
</g><g
         transform="matrix(0.24,0,0,0.24,37.57496,-247.92)"
         id="g58"><text
           id="text62"
           style="font-variant:normal;font-weight:normal;font-size:91.66665649px;font-family:AvenirNextLTPro;-inkscape-font-specification:AvenirNextLTPro;writing-mode:lr-tb;fill:#ffffff;fill-opacity:1;fill-rule:nonzero;stroke:none"
           transform="matrix(1,0,0,-1,0,2250)"><tspan
             id="tspan60"
             y="0"
             x="0 53.120831 77.09166 130.21249 154.18332 207.30415 231.27498 284.39581 308.36664 361.48749 385.45831 438.57913 462.54996">0,0.0,0.0,1.0</tspan></text>
</g><g
         transform="matrix(0.24,0,0,0.24,161.325,-247.92)"
         id="g64"><text
           id="text68"
           style="font-variant:normal;font-weight:normal;font-size:91.66665649px;font-family:AvenirNextLTPro;-inkscape-font-specification:AvenirNextLTPro;writing-mode:lr-tb;fill:#ffffff;fill-opacity:1;fill-rule:nonzero;stroke:none"
           transform="matrix(1,0,0,-1,0,2250)"><tspan
             id="tspan66"
             y="0"
             x="0">,</tspan></text>
</g><g
         transform="matrix(0.24,0,0,0.24,37.57496,-278.88)"
         id="g70"><text
           id="text74"
           style="font-variant:normal;font-weight:normal;font-size:91.66665649px;font-family:AvenirNextLTPro;-inkscape-font-specification:AvenirNextLTPro;writing-mode:lr-tb;fill:#ffffff;fill-opacity:1;fill-rule:nonzero;stroke:none"
           transform="matrix(1,0,0,-1,0,2250)"><tspan
             id="tspan72"
             y="0"
             x="0 53.120831 77.09166 130.21249 154.18332 207.30415 231.27498 284.39581 308.36664 361.48749 414.60831 438.57913 491.69995 515.67078 568.79163 621.91248">1,0.0,0.01,0.99,</tspan></text>
</g><g
         transform="matrix(0.24,0,0,0.24,37.57496,-305.76)"
         id="g76"><text
           id="text80"
           style="font-variant:normal;font-weight:normal;font-size:91.66665649px;font-family:AvenirNextLTPro;-inkscape-font-specification:AvenirNextLTPro;writing-mode:lr-tb;fill:#ffffff;fill-opacity:1;fill-rule:nonzero;stroke:none"
           transform="matrix(1,0,0,-1,0,2250)"><tspan
             id="tspan78"
             y="0"
             x="0 53.120831 77.09166 130.21249 154.18332 207.30415 231.27498 284.39581 308.36664 361.48749 385.45831 438.57913 462.54996 515.67078">2,0.0,0.0,1.0,</tspan></text>
</g><g
         transform="matrix(0.24,0,0,0.24,37.57496,-331.92)"
         id="g82"><text
           id="text86"
           style="font-variant:normal;font-weight:normal;font-size:91.66665649px;font-family:AvenirNextLTPro;-inkscape-font-specification:AvenirNextLTPro;writing-mode:lr-tb;fill:#ffffff;fill-opacity:1;fill-rule:nonzero;stroke:none"
           transform="matrix(1,0,0,-1,0,2250)"><tspan
             id="tspan84"
             y="0"
             x="0 53.120831 77.09166 130.21249 154.18332 207.30415 231.27498 284.39581 308.36664 361.48749 385.45831 438.57913 462.54996 515.67078">3,0.0,0.0,1.0,</tspan></text>
</g><g
         transform="matrix(0.24,0,0,0.24,37.57496,-357.84)"
         id="g88"><text
           id="text92"
           style="font-variant:normal;font-weight:normal;font-size:91.66665649px;font-family:AvenirNextLTPro;-inkscape-font-specification:AvenirNextLTPro;writing-mode:lr-tb;fill:#ffffff;fill-opacity:1;fill-rule:nonzero;stroke:none"
           transform="matrix(1,0,0,-1,0,2250)"><tspan
             id="tspan90"
             y="0"
             x="0 53.120831 77.09166 130.21249 154.18332 207.30415 231.27498 284.39581 308.36664 361.48749 385.45831 438.57913 462.54996 515.67078">4,0.0,0.0,1.0,</tspan></text>
</g><g
         transform="matrix(0.24,0,0,0.24,37.57496,-384.72)"
         id="g94"><text
           id="text98"
           style="font-variant:normal;font-weight:normal;font-size:91.66665649px;font-family:AvenirNextLTPro;-inkscape-font-specification:AvenirNextLTPro;writing-mode:lr-tb;fill:#ffffff;fill-opacity:1;fill-rule:nonzero;stroke:none"
           transform="matrix(1,0,0,-1,0,2250)"><tspan
             id="tspan96"
             y="0"
             x="0 53.120831 77.09166 130.21249 154.18332 207.30415 231.27498 284.39581 308.36664 361.48749 414.60831 438.57913 491.69995 515.67078 568.79163 621.91248">5,0.0,0.02,0.98,</tspan></text>
</g><g
         transform="matrix(0.24,0,0,0.24,37.57496,-410.88)"
         id="g100"><text
           id="text104"
           style="font-variant:normal;font-weight:normal;font-size:91.66665649px;font-family:AvenirNextLTPro;-inkscape-font-specification:AvenirNextLTPro;writing-mode:lr-tb;fill:#ffffff;fill-opacity:1;fill-rule:nonzero;stroke:none"
           transform="matrix(1,0,0,-1,0,2250)"><tspan
             id="tspan102"
             y="0"
             x="0 53.120831 77.09166 130.21249 154.18332 207.30415 231.27498 284.39581 308.36664 361.48749 385.45831 438.57913 462.54996 515.67078">6,0.0,0.0,1.0,</tspan></text>
</g><g
         transform="matrix(0.24,0,0,0.24,37.57496,-437.76)"
         id="g106"><text
           id="text110"
           style="font-variant:normal;font-weight:normal;font-size:91.66665649px;font-family:AvenirNextLTPro;-inkscape-font-specification:AvenirNextLTPro;writing-mode:lr-tb;fill:#ffffff;fill-opacity:1;fill-rule:nonzero;stroke:none"
           transform="matrix(1,0,0,-1,0,2250)"><tspan
             id="tspan108"
             y="0"
             x="0 53.120831 77.09166 130.21249 154.18332 207.30415 231.27498 284.39581 308.36664 361.48749 385.45831 438.57913 462.54996 515.67078">7,0.0,0.0,1.0,</tspan></text>
</g><g
         transform="matrix(0.24,0,0,0.24,37.57496,-463.92)"
         id="g112"><text
           id="text116"
           style="font-variant:normal;font-weight:normal;font-size:91.66665649px;font-family:AvenirNextLTPro;-inkscape-font-specification:AvenirNextLTPro;writing-mode:lr-tb;fill:#ffffff;fill-opacity:1;fill-rule:nonzero;stroke:none"
           transform="matrix(1,0,0,-1,0,2250)"><tspan
             id="tspan114"
             y="0"
             x="0 53.120831 77.09166 130.21249 154.18332 207.30415 231.27498 284.39581 308.36664 361.48749 385.45831 438.57913 462.54996 515.67078">8,0.0,0.0,1.0,</tspan></text>
</g><g
         transform="matrix(0.24,0,0,0.24,37.57496,-489.84)"
         id="g118"><text
           id="text122"
           style="font-variant:normal;font-weight:normal;font-size:91.66665649px;font-family:AvenirNextLTPro;-inkscape-font-specification:AvenirNextLTPro;writing-mode:lr-tb;fill:#ffffff;fill-opacity:1;fill-rule:nonzero;stroke:none"
           transform="matrix(1,0,0,-1,0,2250)"><tspan
             id="tspan120"
             y="0"
             x="0 53.120831 77.09166 130.21249 154.18332 207.30415 231.27498 284.39581 308.36664 361.48749 385.45831 438.57913 462.54996 515.67078">9,0.0,0.0,1.0,</tspan></text>
</g><g
         transform="matrix(0.24,0,0,0.24,37.57496,-516.72)"
         id="g124"><text
           id="text128"
           style="font-variant:normal;font-weight:normal;font-size:91.66665649px;font-family:AvenirNextLTPro;-inkscape-font-specification:AvenirNextLTPro;writing-mode:lr-tb;fill:#ffffff;fill-opacity:1;fill-rule:nonzero;stroke:none"
           transform="matrix(1,0,0,-1,0,2250)"><tspan
             id="tspan126"
             y="0"
             x="0 53.120831 106.24166 130.21249 183.33331 207.30415 260.42499 284.39581 337.51663 361.48749 414.60831 438.57913 491.69995 515.67078 568.79163">10,0.0,0.0,1.0,</tspan></text>
</g><g
         transform="matrix(7.874016e-5,0,0,-7.874016e-5,518.625,356.6248)"
         id="g130"><path
           id="path132"
           style="fill:none;stroke:#5cb678;stroke-width:19050;stroke-linecap:butt;stroke-linejoin:miter;stroke-miterlimit:8;stroke-dasharray:none;stroke-opacity:1"
           d="M 0,0 H 2562234 V 468000 H 0 Z" /></g><g
         transform="matrix(7.874016e-5,0,0,-7.874016e-5,328.5,356.9998)"
         id="g134"><path
           id="path136"
           style="fill:none;stroke:#5cb678;stroke-width:19050;stroke-linecap:butt;stroke-linejoin:miter;stroke-miterlimit:8;stroke-dasharray:none;stroke-opacity:1"
           d="M 0,0 H 2257435 V 468000 H 0 Z" /></g><g
         transform="matrix(7.874016e-5,0,0,-7.874016e-5,137.2498,356.9998)"
         id="g138"><path
           id="path140"
           style="fill:none;stroke:#5cb678;stroke-width:19050;stroke-linecap:butt;stroke-linejoin:miter;stroke-miterlimit:8;stroke-dasharray:none;stroke-opacity:1"
           d="M 0,0 H 2304000 V 468000 H 0 Z" /></g><g
         transform="matrix(7.874016e-5,0,0,-7.874016e-5,30.37496,356.9998)"
         id="g142"><path
           id="path144"
           style="fill:none;stroke:#5cb678;stroke-width:19050;stroke-linecap:butt;stroke-linejoin:miter;stroke-miterlimit:8;stroke-dasharray:none;stroke-opacity:1"
           d="M 0,0 H 1200158 V 468000 H 0 Z" /></g><path
         id="path146"
         style="fill:#00b050;fill-opacity:1;fill-rule:nonzero;stroke:none"
         d="m 81.37436,358.6207 1.02628,78.0007 -2.99974,0.0395 -1.02628,-78.0007 z m 4.00629,76.4614 -4.3812,9.0585 -4.61802,-8.9401 z" /><g
         transform="matrix(0.24,0,0,0.24,49.06201,-64.79999)"
         id="g148"><text
           id="text152"
           style="font-variant:normal;font-weight:normal;font-size:91.66665649px;font-family:AvenirNextLTPro;-inkscape-font-specification:AvenirNextLTPro;writing-mode:lr-tb;fill:#ffffff;fill-opacity:1;fill-rule:nonzero;stroke:none"
           transform="matrix(1,0,0,-1,0,2250)"><tspan
             id="tspan150"
             y="0"
             x="0 64.065826 121.89832 174.50581 227.66331 256.80414">Agent </tspan></text>
</g><g
         transform="matrix(0.24,0,0,0.24,52.06701,-90.71999)"
         id="g154"><text
           id="text158"
           style="font-variant:normal;font-weight:normal;font-size:91.66665649px;font-family:AvenirNextLTPro;-inkscape-font-specification:AvenirNextLTPro;writing-mode:lr-tb;fill:#ffffff;fill-opacity:1;fill-rule:nonzero;stroke:none"
           transform="matrix(1,0,0,-1,0,2250)"><tspan
             id="tspan156"
             y="0"
             x="0 23.961664 77.073326 135.40999 187.51332">Index</tspan></text>
</g><path
         id="path160"
         style="fill:#00b050;fill-opacity:1;fill-rule:nonzero;stroke:none"
         d="m 229.8758,356.9098 1.0263,78.0007 -2.9998,0.0395 -1.0263,-78.0007 z m 4.0063,76.4614 -4.3812,9.0584 -4.6181,-8.94 z" /><g
         transform="matrix(0.24,0,0,0.24,191.0129,-64.79999)"
         id="g162"><text
           id="text166"
           style="font-variant:normal;font-weight:normal;font-size:91.66665649px;font-family:AvenirNextLTPro;-inkscape-font-specification:AvenirNextLTPro;writing-mode:lr-tb;fill:#ffffff;fill-opacity:1;fill-rule:nonzero;stroke:none"
           transform="matrix(1,0,0,-1,0,2250)"><tspan
             id="tspan164"
             y="0"
             x="0 53.441662 102.39166 125.30833 178.47499">Value</tspan></text>
</g><g
         transform="matrix(0.24,0,0,0.24,251.9629,-64.79999)"
         id="g168"><text
           id="text172"
           style="font-variant:normal;font-weight:normal;font-size:91.66665649px;font-family:AvenirNextLTPro;-inkscape-font-specification:AvenirNextLTPro;writing-mode:lr-tb;fill:#ffffff;fill-opacity:1;fill-rule:nonzero;stroke:none"
           transform="matrix(1,0,0,-1,0,2250)"><tspan
             id="tspan170"
             y="0"
             x="0 56.246662">of</tspan></text>
</g><g
         transform="matrix(0.24,0,0,0.24,224.8779,-92.87999)"
         id="g174"><text
           id="text178"
           style="font-style:italic;font-variant:normal;font-size:100px;font-family:Arial;-inkscape-font-specification:Arial-ItalicMT;writing-mode:lr-tb;fill:#ffffff;fill-opacity:1;fill-rule:nonzero;stroke:none"
           transform="matrix(1,0,0,-1,0,2250)"><tspan
             id="tspan176"
             y="0"
             x="0">α</tspan></text>
</g><path
         id="path180"
         style="fill:#00b050;fill-opacity:1;fill-rule:nonzero;stroke:none"
         d="m 418.8758,358.6207 1.0263,78.0007 -2.9998,0.0395 -1.0263,-78.0007 z m 4.0063,76.4614 -4.3812,9.0585 -4.6181,-8.9401 z" /><g
         transform="matrix(0.24,0,0,0.24,378.8879,-63.11999)"
         id="g182"><text
           id="text186"
           style="font-variant:normal;font-weight:normal;font-size:91.66665649px;font-family:AvenirNextLTPro;-inkscape-font-specification:AvenirNextLTPro;writing-mode:lr-tb;fill:#ffffff;fill-opacity:1;fill-rule:nonzero;stroke:none"
           transform="matrix(1,0,0,-1,0,2250)"><tspan
             id="tspan184"
             y="0"
             x="0 53.441662 102.39166 125.30833 178.47499">Value</tspan></text>
</g><g
         transform="matrix(0.24,0,0,0.24,439.8379,-63.11999)"
         id="g188"><text
           id="text192"
           style="font-variant:normal;font-weight:normal;font-size:91.66665649px;font-family:AvenirNextLTPro;-inkscape-font-specification:AvenirNextLTPro;writing-mode:lr-tb;fill:#ffffff;fill-opacity:1;fill-rule:nonzero;stroke:none"
           transform="matrix(1,0,0,-1,0,2250)"><tspan
             id="tspan190"
             y="0"
             x="0 56.246662">of</tspan></text>
</g><g
         transform="matrix(0.24,0,0,0.24,412.7529,-91.19999)"
         id="g194"><text
           id="text198"
           style="font-style:italic;font-variant:normal;font-size:100px;font-family:Arial;-inkscape-font-specification:Arial-ItalicMT;writing-mode:lr-tb;fill:#ffffff;fill-opacity:1;fill-rule:nonzero;stroke:none"
           transform="matrix(1,0,0,-1,0,2250)"><tspan
             id="tspan196"
             y="0"
             x="0">β</tspan></text>
</g><path
         id="path200"
         style="fill:#00b050;fill-opacity:1;fill-rule:nonzero;stroke:none"
         d="m 621.0837,358.6207 1.0263,78.0007 -2.9997,0.0395 -1.0263,-78.0007 z m 4.0063,76.4614 -4.3812,9.0585 -4.618,-8.9401 z" /><g
         transform="matrix(0.24,0,0,0.24,581.0958,-63.11999)"
         id="g202"><text
           id="text206"
           style="font-variant:normal;font-weight:normal;font-size:91.66665649px;font-family:AvenirNextLTPro;-inkscape-font-specification:AvenirNextLTPro;writing-mode:lr-tb;fill:#ffffff;fill-opacity:1;fill-rule:nonzero;stroke:none"
           transform="matrix(1,0,0,-1,0,2250)"><tspan
             id="tspan204"
             y="0"
             x="0 53.441662 102.39166 125.30833 178.47499">Value</tspan></text>
</g><g
         transform="matrix(0.24,0,0,0.24,642.0458,-63.11999)"
         id="g208"><text
           id="text212"
           style="font-variant:normal;font-weight:normal;font-size:91.66665649px;font-family:AvenirNextLTPro;-inkscape-font-specification:AvenirNextLTPro;writing-mode:lr-tb;fill:#ffffff;fill-opacity:1;fill-rule:nonzero;stroke:none"
           transform="matrix(1,0,0,-1,0,2250)"><tspan
             id="tspan210"
             y="0"
             x="0 56.246662">of</tspan></text>
</g><g
         transform="matrix(0.24,0,0,0.24,582.2708,-91.19999)"
         id="g214"><text
           id="text218"
           style="font-variant:normal;font-weight:normal;font-size:91.66665649px;font-family:AvenirNextLTPro;-inkscape-font-specification:AvenirNextLTPro;writing-mode:lr-tb;fill:#ffffff;fill-opacity:1;fill-rule:nonzero;stroke:none"
           transform="matrix(1,0,0,-1,0,2250)"><tspan
             id="tspan216"
             y="0"
             x="0">1</tspan></text>
</g><g
         transform="matrix(0.24,0,0,0.24,600.5208,-91.19999)"
         id="g220"><text
           id="text224"
           style="font-style:italic;font-variant:normal;font-size:83.33332825px;font-family:Arial;-inkscape-font-specification:Arial-ItalicMT;writing-mode:lr-tb;fill:#ffffff;fill-opacity:1;fill-rule:nonzero;stroke:none"
           transform="matrix(1,0,0,-1,0,2250)"><tspan
             id="tspan222"
             y="0"
             x="0">-</tspan></text>
</g><g
         transform="matrix(0.24,0,0,0.24,612.6458,-91.19999)"
         id="g226"><text
           id="text230"
           style="font-style:italic;font-variant:normal;font-size:100px;font-family:Arial;-inkscape-font-specification:Arial-ItalicMT;writing-mode:lr-tb;fill:#ffffff;fill-opacity:1;fill-rule:nonzero;stroke:none"
           transform="matrix(1,0,0,-1,0,2250)"><tspan
             id="tspan228"
             y="0"
             x="0 57.290001">α </tspan></text>
</g><g
         transform="matrix(0.24,0,0,0.24,633.0208,-91.19999)"
         id="g232"><text
           id="text236"
           style="font-style:italic;font-variant:normal;font-size:100px;font-family:Arial;-inkscape-font-specification:Arial-ItalicMT;writing-mode:lr-tb;fill:#ffffff;fill-opacity:1;fill-rule:nonzero;stroke:none"
           transform="matrix(1,0,0,-1,0,2250)"><tspan
             id="tspan234"
             y="0"
             x="0">-</tspan></text>
</g><g
         transform="matrix(0.24,0,0,0.24,647.6458,-91.19999)"
         id="g238"><text
           id="text242"
           style="font-style:italic;font-variant:normal;font-size:100px;font-family:Arial;-inkscape-font-specification:Arial-ItalicMT;writing-mode:lr-tb;fill:#ffffff;fill-opacity:1;fill-rule:nonzero;stroke:none"
           transform="matrix(1,0,0,-1,0,2250)"><tspan
             id="tspan240"
             y="0"
             x="0">β</tspan></text>
</g></g></g></svg>