<?xml version="1.0" encoding="UTF-8" standalone="no"?>
<svg
   xmlns:dc="http://purl.org/dc/elements/1.1/"
   xmlns:cc="http://creativecommons.org/ns#"
   xmlns:rdf="http://www.w3.org/1999/02/22-rdf-syntax-ns#"
   xmlns:svg="http://www.w3.org/2000/svg"
   xmlns="http://www.w3.org/2000/svg"
   viewBox="0 0 1280 720"
   height="720"
   width="1280"
   xml:space="preserve"
   id="svg2"
   version="1.1"><metadata
     id="metadata8"><rdf:RDF><cc:Work
         rdf:about=""><dc:format>image/svg+xml</dc:format><dc:type
           rdf:resource="http://purl.org/dc/dcmitype/StillImage" /></cc:Work></rdf:RDF></metadata><defs
     id="defs6"><clipPath
       id="clipPath20"
       clipPathUnits="userSpaceOnUse"><path
         id="path18"
         d="M 0,1.206994e-5 H 959.76 V 540.00001 H 0 Z" /></clipPath></defs><g
     transform="matrix(1.3333333,0,0,-1.3333333,0,720)"
     id="g10"><g
       id="g12" /><g
       id="g14"><g
         clip-path="url(#clipPath20)"
         id="g16"><path
           id="path22"
           style="fill:#ffffff;fill-opacity:1;fill-rule:nonzero;stroke:none"
           d="M 0,540 H 959.76 V 1.206994e-5 H 0 Z" /></g></g><g
       id="g24"><path
         id="path26"
         style="fill:#404040;fill-opacity:1;fill-rule:nonzero;stroke:none"
         d="M 0,540 H 960 V 1.40816e-5 H 0 Z" /><g
         transform="matrix(0.24,0,0,0.24,16.20008,-253.2)"
         id="g28"><text
           id="text32"
           style="font-variant:normal;font-weight:normal;font-size:91.66665649px;font-family:AvenirNextLTPro;-inkscape-font-specification:AvenirNextLTPro;writing-mode:lr-tb;fill:#92d050;fill-opacity:1;fill-rule:nonzero;stroke:none"
           transform="matrix(1,0,0,-1,0,2250)"><tspan
             id="tspan30"
             y="0"
             x="0 53.560829 106.68166 159.80249 182.71915 203.94916 226.86581 275.82498 333.63913 386.24664 439.36746">Run , agent</tspan></text>
</g><g
         transform="matrix(0.24,0,0,0.24,128.6501,-253.2)"
         id="g34"><text
           id="text38"
           style="font-variant:normal;font-weight:normal;font-size:91.66665649px;font-family:AvenirNextLTPro;-inkscape-font-specification:AvenirNextLTPro;writing-mode:lr-tb;fill:#92d050;fill-opacity:1;fill-rule:nonzero;stroke:none"
           transform="matrix(1,0,0,-1,0,2250)"><tspan
             id="tspan36"
             y="0"
             x="0">-</tspan></text>
</g><g
         transform="matrix(0.24,0,0,0.24,135.6501,-253.2)"
         id="g40"><text
           id="text44"
           style="font-variant:normal;font-weight:normal;font-size:91.66665649px;font-family:AvenirNextLTPro;-inkscape-font-specification:AvenirNextLTPro;writing-mode:lr-tb;fill:#92d050;fill-opacity:1;fill-rule:nonzero;stroke:none"
           transform="matrix(1,0,0,-1,0,2250)"><tspan
             id="tspan42"
             y="0"
             x="0">0</tspan></text>
</g><g
         transform="matrix(0.24,0,0,0.24,148.4001,-253.2)"
         id="g46"><text
           id="text50"
           style="font-variant:normal;font-weight:normal;font-size:91.66665649px;font-family:AvenirNextLTPro;-inkscape-font-specification:AvenirNextLTPro;writing-mode:lr-tb;fill:#92d050;fill-opacity:1;fill-rule:nonzero;stroke:none"
           transform="matrix(1,0,0,-1,0,2250)"><tspan
             id="tspan48"
             y="0"
             x="0 23.961664 72.948326 130.73499 183.38832 236.49998">,agent</tspan></text>
</g><g
         transform="matrix(0.24,0,0,0.24,212.1501,-253.2)"
         id="g52"><text
           id="text56"
           style="font-variant:normal;font-weight:normal;font-size:91.66665649px;font-family:AvenirNextLTPro;-inkscape-font-specification:AvenirNextLTPro;writing-mode:lr-tb;fill:#92d050;fill-opacity:1;fill-rule:nonzero;stroke:none"
           transform="matrix(1,0,0,-1,0,2250)"><tspan
             id="tspan54"
             y="0"
             x="0">-</tspan></text>
</g><g
         transform="matrix(0.24,0,0,0.24,219.1501,-253.2)"
         id="g58"><text
           id="text62"
           style="font-variant:normal;font-weight:normal;font-size:91.66665649px;font-family:AvenirNextLTPro;-inkscape-font-specification:AvenirNextLTPro;writing-mode:lr-tb;fill:#92d050;fill-opacity:1;fill-rule:nonzero;stroke:none"
           transform="matrix(1,0,0,-1,0,2250)"><tspan
             id="tspan60"
             y="0"
             x="0 53.120831 77.09166 126.08749 183.88332 236.45415 289.57498">1,agent</tspan></text>
</g><g
         transform="matrix(0.24,0,0,0.24,295.6501,-253.2)"
         id="g64"><text
           id="text68"
           style="font-variant:normal;font-weight:normal;font-size:91.66665649px;font-family:AvenirNextLTPro;-inkscape-font-specification:AvenirNextLTPro;writing-mode:lr-tb;fill:#92d050;fill-opacity:1;fill-rule:nonzero;stroke:none"
           transform="matrix(1,0,0,-1,0,2250)"><tspan
             id="tspan66"
             y="0"
             x="0">-</tspan></text>
</g><g
         transform="matrix(0.24,0,0,0.24,302.6501,-253.2)"
         id="g70"><text
           id="text74"
           style="font-variant:normal;font-weight:normal;font-size:91.66665649px;font-family:AvenirNextLTPro;-inkscape-font-specification:AvenirNextLTPro;writing-mode:lr-tb;fill:#92d050;fill-opacity:1;fill-rule:nonzero;stroke:none"
           transform="matrix(1,0,0,-1,0,2250)"><tspan
             id="tspan72"
             y="0"
             x="0 53.120831 77.09166 126.08749 183.88332 236.45415 289.57498">2,agent</tspan></text>
</g><g
         transform="matrix(0.24,0,0,0.24,379.1501,-253.2)"
         id="g76"><text
           id="text80"
           style="font-variant:normal;font-weight:normal;font-size:91.66665649px;font-family:AvenirNextLTPro;-inkscape-font-specification:AvenirNextLTPro;writing-mode:lr-tb;fill:#92d050;fill-opacity:1;fill-rule:nonzero;stroke:none"
           transform="matrix(1,0,0,-1,0,2250)"><tspan
             id="tspan78"
             y="0"
             x="0">-</tspan></text>
</g><g
         transform="matrix(0.24,0,0,0.24,386.1501,-253.2)"
         id="g82"><text
           id="text86"
           style="font-variant:normal;font-weight:normal;font-size:91.66665649px;font-family:AvenirNextLTPro;-inkscape-font-specification:AvenirNextLTPro;writing-mode:lr-tb;fill:#92d050;fill-opacity:1;fill-rule:nonzero;stroke:none"
           transform="matrix(1,0,0,-1,0,2250)"><tspan
             id="tspan84"
             y="0"
             x="0 53.120831 77.09166 126.08749 183.88332 236.45415 289.57498">3,agent</tspan></text>
</g><g
         transform="matrix(0.24,0,0,0.24,462.6501,-253.2)"
         id="g88"><text
           id="text92"
           style="font-variant:normal;font-weight:normal;font-size:91.66665649px;font-family:AvenirNextLTPro;-inkscape-font-specification:AvenirNextLTPro;writing-mode:lr-tb;fill:#92d050;fill-opacity:1;fill-rule:nonzero;stroke:none"
           transform="matrix(1,0,0,-1,0,2250)"><tspan
             id="tspan90"
             y="0"
             x="0">-</tspan></text>
</g><g
         transform="matrix(0.24,0,0,0.24,469.65,-253.2)"
         id="g94"><text
           id="text98"
           style="font-variant:normal;font-weight:normal;font-size:91.66665649px;font-family:AvenirNextLTPro;-inkscape-font-specification:AvenirNextLTPro;writing-mode:lr-tb;fill:#92d050;fill-opacity:1;fill-rule:nonzero;stroke:none"
           transform="matrix(1,0,0,-1,0,2250)"><tspan
             id="tspan96"
             y="0"
             x="0 53.120831 77.09166 126.08749 183.88332 236.45415 289.57498">4,agent</tspan></text>
</g><g
         transform="matrix(0.24,0,0,0.24,546.15,-253.2)"
         id="g100"><text
           id="text104"
           style="font-variant:normal;font-weight:normal;font-size:91.66665649px;font-family:AvenirNextLTPro;-inkscape-font-specification:AvenirNextLTPro;writing-mode:lr-tb;fill:#92d050;fill-opacity:1;fill-rule:nonzero;stroke:none"
           transform="matrix(1,0,0,-1,0,2250)"><tspan
             id="tspan102"
             y="0"
             x="0">-</tspan></text>
</g><g
         transform="matrix(0.24,0,0,0.24,553.1501,-253.2)"
         id="g106"><text
           id="text110"
           style="font-variant:normal;font-weight:normal;font-size:91.66665649px;font-family:AvenirNextLTPro;-inkscape-font-specification:AvenirNextLTPro;writing-mode:lr-tb;fill:#92d050;fill-opacity:1;fill-rule:nonzero;stroke:none"
           transform="matrix(1,0,0,-1,0,2250)"><tspan
             id="tspan108"
             y="0"
             x="0 53.120831 77.09166 126.08749 183.88332 236.45415 289.57498">5,agent</tspan></text>
</g><g
         transform="matrix(0.24,0,0,0.24,629.6501,-253.2)"
         id="g112"><text
           id="text116"
           style="font-variant:normal;font-weight:normal;font-size:91.66665649px;font-family:AvenirNextLTPro;-inkscape-font-specification:AvenirNextLTPro;writing-mode:lr-tb;fill:#92d050;fill-opacity:1;fill-rule:nonzero;stroke:none"
           transform="matrix(1,0,0,-1,0,2250)"><tspan
             id="tspan114"
             y="0"
             x="0">-</tspan></text>
</g><g
         transform="matrix(0.24,0,0,0.24,636.65,-253.2)"
         id="g118"><text
           id="text122"
           style="font-variant:normal;font-weight:normal;font-size:91.66665649px;font-family:AvenirNextLTPro;-inkscape-font-specification:AvenirNextLTPro;writing-mode:lr-tb;fill:#92d050;fill-opacity:1;fill-rule:nonzero;stroke:none"
           transform="matrix(1,0,0,-1,0,2250)"><tspan
             id="tspan120"
             y="0"
             x="0 53.120831 77.09166 126.08749 183.88332 236.45415 289.57498">6,agent</tspan></text>
</g><g
         transform="matrix(0.24,0,0,0.24,713.15,-253.2)"
         id="g124"><text
           id="text128"
           style="font-variant:normal;font-weight:normal;font-size:91.66665649px;font-family:AvenirNextLTPro;-inkscape-font-specification:AvenirNextLTPro;writing-mode:lr-tb;fill:#92d050;fill-opacity:1;fill-rule:nonzero;stroke:none"
           transform="matrix(1,0,0,-1,0,2250)"><tspan
             id="tspan126"
             y="0"
             x="0">-</tspan></text>
</g><g
         transform="matrix(0.24,0,0,0.24,720.15,-253.2)"
         id="g130"><text
           id="text134"
           style="font-variant:normal;font-weight:normal;font-size:91.66665649px;font-family:AvenirNextLTPro;-inkscape-font-specification:AvenirNextLTPro;writing-mode:lr-tb;fill:#92d050;fill-opacity:1;fill-rule:nonzero;stroke:none"
           transform="matrix(1,0,0,-1,0,2250)"><tspan
             id="tspan132"
             y="0"
             x="0 53.120831 77.09166 126.08749 183.88332 236.45415 289.57498">7,agent</tspan></text>
</g><g
         transform="matrix(0.24,0,0,0.24,796.65,-253.2)"
         id="g136"><text
           id="text140"
           style="font-variant:normal;font-weight:normal;font-size:91.66665649px;font-family:AvenirNextLTPro;-inkscape-font-specification:AvenirNextLTPro;writing-mode:lr-tb;fill:#92d050;fill-opacity:1;fill-rule:nonzero;stroke:none"
           transform="matrix(1,0,0,-1,0,2250)"><tspan
             id="tspan138"
             y="0"
             x="0">-</tspan></text>
</g><g
         transform="matrix(0.24,0,0,0.24,803.6501,-253.2)"
         id="g142"><text
           id="text146"
           style="font-variant:normal;font-weight:normal;font-size:91.66665649px;font-family:AvenirNextLTPro;-inkscape-font-specification:AvenirNextLTPro;writing-mode:lr-tb;fill:#92d050;fill-opacity:1;fill-rule:nonzero;stroke:none"
           transform="matrix(1,0,0,-1,0,2250)"><tspan
             id="tspan144"
             y="0"
             x="0 53.120831 77.09166 126.08749 183.88332 236.45415 289.57498">8,agent</tspan></text>
</g><g
         transform="matrix(0.24,0,0,0.24,880.1501,-253.2)"
         id="g148"><text
           id="text152"
           style="font-variant:normal;font-weight:normal;font-size:91.66665649px;font-family:AvenirNextLTPro;-inkscape-font-specification:AvenirNextLTPro;writing-mode:lr-tb;fill:#92d050;fill-opacity:1;fill-rule:nonzero;stroke:none"
           transform="matrix(1,0,0,-1,0,2250)"><tspan
             id="tspan150"
             y="0"
             x="0">-</tspan></text>
</g><g
         transform="matrix(0.24,0,0,0.24,887.15,-253.2)"
         id="g154"><text
           id="text158"
           style="font-variant:normal;font-weight:normal;font-size:91.66665649px;font-family:AvenirNextLTPro;-inkscape-font-specification:AvenirNextLTPro;writing-mode:lr-tb;fill:#92d050;fill-opacity:1;fill-rule:nonzero;stroke:none"
           transform="matrix(1,0,0,-1,0,2250)"><tspan
             id="tspan156"
             y="0"
             x="0">9</tspan></text>
</g><g
         transform="matrix(0.24,0,0,0.24,16.20008,-293.28)"
         id="g160"><text
           id="text164"
           style="font-variant:normal;font-weight:normal;font-size:91.66665649px;font-family:AvenirNextLTPro;-inkscape-font-specification:AvenirNextLTPro;writing-mode:lr-tb;fill:#ffffff;fill-opacity:1;fill-rule:nonzero;stroke:none"
           transform="matrix(1,0,0,-1,0,2250)"><tspan
             id="tspan162"
             y="0"
             x="0 53.120831 77.09166 130.21249 154.18332 207.30415 231.27498 284.39581 308.36664 361.48749 385.45831 438.57913 462.54996 515.67078 539.6416 592.76245 616.73328 669.85413 693.82495 746.9458 770.91663">1,0,1,2,3,4,5,6,7,8,9</tspan></text>
</g><g
         transform="matrix(0.24,0,0,0.24,213.9501,-293.28)"
         id="g166"><text
           id="text170"
           style="font-variant:normal;font-weight:normal;font-size:91.66665649px;font-family:AvenirNextLTPro;-inkscape-font-specification:AvenirNextLTPro;writing-mode:lr-tb;fill:#ffffff;fill-opacity:1;fill-rule:nonzero;stroke:none"
           transform="matrix(1,0,0,-1,0,2250)"><tspan
             id="tspan168"
             y="0"
             x="0">,</tspan></text>
</g><g
         transform="matrix(0.24,0,0,0.24,16.20008,-323.28)"
         id="g172"><text
           id="text176"
           style="font-variant:normal;font-weight:normal;font-size:91.66665649px;font-family:AvenirNextLTPro;-inkscape-font-specification:AvenirNextLTPro;writing-mode:lr-tb;fill:#ffffff;fill-opacity:1;fill-rule:nonzero;stroke:none"
           transform="matrix(1,0,0,-1,0,2250)"><tspan
             id="tspan174"
             y="0"
             x="0 53.120831 77.09166 130.21249 154.18332 207.30415 231.27498 284.39581 308.36664 361.48749 385.45831 438.57913 462.54996 515.67078 539.6416 592.76245 616.73328 669.85413 693.82495 746.9458 770.91663 824.03741">2,6,9,7,8,4,2,0,3,1,5,</tspan></text>
</g><g
         transform="matrix(0.24,0,0,0.24,16.20008,-350.16)"
         id="g178"><text
           id="text182"
           style="font-variant:normal;font-weight:normal;font-size:91.66665649px;font-family:AvenirNextLTPro;-inkscape-font-specification:AvenirNextLTPro;writing-mode:lr-tb;fill:#ffffff;fill-opacity:1;fill-rule:nonzero;stroke:none"
           transform="matrix(1,0,0,-1,0,2250)"><tspan
             id="tspan180"
             y="0"
             x="0 53.120831 77.09166 130.21249 154.18332 207.30415 231.27498 284.39581 308.36664 361.48749 385.45831 438.57913 462.54996 515.67078 539.6416 592.76245 616.73328 669.85413 693.82495 746.9458 770.91663 824.03741">3,7,9,5,2,6,8,4,3,0,1,</tspan></text>
</g><g
         transform="matrix(0.24,0,0,0.24,16.20008,-376.32)"
         id="g184"><text
           id="text188"
           style="font-variant:normal;font-weight:normal;font-size:91.66665649px;font-family:AvenirNextLTPro;-inkscape-font-specification:AvenirNextLTPro;writing-mode:lr-tb;fill:#ffffff;fill-opacity:1;fill-rule:nonzero;stroke:none"
           transform="matrix(1,0,0,-1,0,2250)"><tspan
             id="tspan186"
             y="0"
             x="0 53.120831 77.09166 130.21249 154.18332 207.30415 231.27498 284.39581 308.36664 361.48749 385.45831 438.57913 462.54996 515.67078 539.6416 592.76245 616.73328 669.85413 693.82495 746.9458 770.91663 824.03741">4,4,8,9,2,0,3,1,7,5,6,</tspan></text>
</g><g
         transform="matrix(0.24,0,0,0.24,16.20008,-403.2)"
         id="g190"><text
           id="text194"
           style="font-variant:normal;font-weight:normal;font-size:91.66665649px;font-family:AvenirNextLTPro;-inkscape-font-specification:AvenirNextLTPro;writing-mode:lr-tb;fill:#ffffff;fill-opacity:1;fill-rule:nonzero;stroke:none"
           transform="matrix(1,0,0,-1,0,2250)"><tspan
             id="tspan192"
             y="0"
             x="0 53.120831 77.09166 130.21249 154.18332 207.30415 231.27498 284.39581 308.36664 361.48749 385.45831 438.57913 462.54996 515.67078 539.6416 592.76245 616.73328 669.85413 693.82495 746.9458 770.91663">5,3,0,8,1,4,2,6,5,7,9</tspan></text>
</g><g
         transform="matrix(0.24,0,0,0.24,213.9501,-403.2)"
         id="g196"><text
           id="text200"
           style="font-variant:normal;font-weight:normal;font-size:91.66665649px;font-family:AvenirNextLTPro;-inkscape-font-specification:AvenirNextLTPro;writing-mode:lr-tb;fill:#000000;fill-opacity:1;fill-rule:nonzero;stroke:none"
           transform="matrix(1,0,0,-1,0,2250)"><tspan
             id="tspan198"
             y="0"
             x="0">,</tspan></text>
</g><g
         transform="matrix(7.874016e-5,0,0,-7.874016e-5,9.000079,313.875)"
         id="g202"><path
           id="path204"
           style="fill:none;stroke:#5cb678;stroke-width:19050;stroke-linecap:butt;stroke-linejoin:miter;stroke-miterlimit:8;stroke-dasharray:none;stroke-opacity:1"
           d="M 0,0 H 628649 V 557212 H 0 Z" /></g><g
         transform="matrix(7.874016e-5,0,0,-7.874016e-5,66.93756,313.875)"
         id="g206"><path
           id="path208"
           style="fill:none;stroke:#5cb678;stroke-width:19050;stroke-linecap:butt;stroke-linejoin:miter;stroke-miterlimit:8;stroke-dasharray:none;stroke-opacity:1"
           d="M 0,0 H 10637043 V 557212 H 0 Z" /></g><path
         id="path210"
         style="fill:#00b050;fill-opacity:1;fill-rule:nonzero;stroke:none"
         d="m 35.24995,313.8552 1.02629,78.0007 -2.99974,0.0395 -1.02629,-78.0007 z m 4.00629,76.4614 -4.3812,9.0584 -4.61802,-8.94 z" /><path
         id="path212"
         style="fill:#00b050;fill-opacity:1;fill-rule:nonzero;stroke:none"
         d="m 498.3749,313.8553 1.0263,78.0007 -2.9997,0.0395 -1.0263,-78.0007 z m 4.0063,76.4614 -4.3812,9.0584 -4.618,-8.94 z" /><g
         transform="matrix(0.24,0,0,0.24,7.157086,-112.56)"
         id="g214"><text
           id="text218"
           style="font-variant:normal;font-weight:normal;font-size:83.33332825px;font-family:AvenirNextLTPro;-inkscape-font-specification:AvenirNextLTPro;writing-mode:lr-tb;fill:#ffffff;fill-opacity:1;fill-rule:nonzero;stroke:none"
           transform="matrix(1,0,0,-1,0,2250)"><tspan
             id="tspan216"
             y="0"
             x="0 21.875 48.441666 95.833328 125.02499 168.48332 195.04999 215.88333 266.92499 315.36667">Iteration </tspan></text>
</g><g
         transform="matrix(0.24,0,0,0.24,19.74709,-136.56)"
         id="g220"><text
           id="text224"
           style="font-variant:normal;font-weight:normal;font-size:83.33332825px;font-family:AvenirNextLTPro;-inkscape-font-specification:AvenirNextLTPro;writing-mode:lr-tb;fill:#ffffff;fill-opacity:1;fill-rule:nonzero;stroke:none"
           transform="matrix(1,0,0,-1,0,2250)"><tspan
             id="tspan222"
             y="0"
             x="0 21.875 70.333328 123.45833 170.33333">Index</tspan></text>
</g><g
         transform="matrix(0.24,0,0,0.24,376.3723,-129.36)"
         id="g226"><text
           id="text230"
           style="font-variant:normal;font-weight:normal;font-size:83.33332825px;font-family:AvenirNextLTPro;-inkscape-font-specification:AvenirNextLTPro;writing-mode:lr-tb;fill:#ffffff;fill-opacity:1;fill-rule:nonzero;stroke:none"
           transform="matrix(1,0,0,-1,0,2250)"><tspan
             id="tspan228"
             y="0"
             x="0 45.891666 94.333328 141.72499 162.55833 215.68332 266.72498 303.69998 324.53333 351.09998 371.93332 422.97498 471.41666 492.24997 543.29163 569.77496 590.60834 637.52496 681.79163 723.45831 771.89996 792.73328 836.99994 889.60828 936.99994 985.44165 1012.0083">The position of each agent </tspan></text>
</g></g></g></svg>